<mxfile host="app.diagrams.net" modified="2024-06-21T14:41:45.940Z" agent="Mozilla/5.0 (Windows NT 10.0; Win64; x64) AppleWebKit/537.36 (KHTML, like Gecko) Chrome/126.0.0.0 Safari/537.36" etag="7FjzIattGRme-a_VbYhO" version="24.5.5" type="device">
  <diagram name="Página-1" id="bnPEfXGargvl6V1TggLr">
    <mxGraphModel dx="880" dy="521" grid="1" gridSize="10" guides="1" tooltips="1" connect="1" arrows="1" fold="1" page="1" pageScale="1" pageWidth="827" pageHeight="1169" math="0" shadow="0">
      <root>
        <mxCell id="0" />
        <mxCell id="1" parent="0" />
        <mxCell id="DVwjYZw-OUDus3rM_8y--29" value="" style="rounded=0;whiteSpace=wrap;html=1;" parent="1" vertex="1">
          <mxGeometry x="65" y="490" width="190" height="60" as="geometry" />
        </mxCell>
        <mxCell id="DVwjYZw-OUDus3rM_8y--1" value="" style="points=[[0,0.5,0],[0.24,0,0],[0.5,0.28,0],[0.995,0.475,0],[0.5,0.72,0],[0.24,1,0]];verticalLabelPosition=bottom;sketch=0;html=1;verticalAlign=top;aspect=fixed;align=center;pointerEvents=1;shape=mxgraph.cisco19.key;fillColor=#CC0066;strokeColor=none;" parent="1" vertex="1">
          <mxGeometry x="110" y="230" width="50" height="22.5" as="geometry" />
        </mxCell>
        <mxCell id="DVwjYZw-OUDus3rM_8y--2" value="Public key" style="verticalLabelPosition=bottom;html=1;verticalAlign=top;align=center;strokeColor=none;fillColor=#00BEF2;shape=mxgraph.azure.cloud_services_configuration_file;pointerEvents=1;" parent="1" vertex="1">
          <mxGeometry x="140" y="252.5" width="30" height="37.5" as="geometry" />
        </mxCell>
        <mxCell id="DVwjYZw-OUDus3rM_8y--3" value="" style="points=[[0,0.5,0],[0.24,0,0],[0.5,0.28,0],[0.995,0.475,0],[0.5,0.72,0],[0.24,1,0]];verticalLabelPosition=bottom;sketch=0;html=1;verticalAlign=top;aspect=fixed;align=center;pointerEvents=1;shape=mxgraph.cisco19.key;fillColor=#007FFF;strokeColor=none;" parent="1" vertex="1">
          <mxGeometry x="300" y="230" width="50" height="22.5" as="geometry" />
        </mxCell>
        <mxCell id="DVwjYZw-OUDus3rM_8y--4" value="Private key" style="verticalLabelPosition=bottom;html=1;verticalAlign=top;align=center;strokeColor=none;fillColor=#00BEF2;shape=mxgraph.azure.cloud_services_configuration_file;pointerEvents=1;" parent="1" vertex="1">
          <mxGeometry x="330" y="252.5" width="30" height="37.5" as="geometry" />
        </mxCell>
        <mxCell id="DVwjYZw-OUDus3rM_8y--5" value="Cfrado Asimetrico" style="text;html=1;align=center;verticalAlign=middle;whiteSpace=wrap;rounded=0;" parent="1" vertex="1">
          <mxGeometry x="120" y="190" width="170" height="30" as="geometry" />
        </mxCell>
        <mxCell id="DVwjYZw-OUDus3rM_8y--6" value="- Se utiliza para cifrar datos&lt;div&gt;- Es compartida públicamente y puede ser conocida por &lt;b&gt;cualquier persona&lt;/b&gt;&lt;/div&gt;&lt;div&gt;&lt;b&gt;- &lt;/b&gt;Los datos cifrados con la llave pública solo pueden ser desifrados con la correspondiente llave privada&lt;/div&gt;" style="text;html=1;align=left;verticalAlign=top;whiteSpace=wrap;rounded=0;labelBorderColor=default;" parent="1" vertex="1">
          <mxGeometry x="65" y="320" width="180" height="180" as="geometry" />
        </mxCell>
        <mxCell id="DVwjYZw-OUDus3rM_8y--7" value="Key pairs" style="edgeStyle=orthogonalEdgeStyle;rounded=0;orthogonalLoop=1;jettySize=auto;html=1;startArrow=classic;startFill=1;" parent="1" edge="1">
          <mxGeometry relative="1" as="geometry">
            <mxPoint x="190" y="271" as="sourcePoint" />
            <mxPoint x="320" y="272" as="targetPoint" />
          </mxGeometry>
        </mxCell>
        <mxCell id="DVwjYZw-OUDus3rM_8y--8" value="- Se utiliza para descifrar datos&lt;div&gt;- Debe ser mantenida en &lt;b&gt;secreto&amp;nbsp;&lt;/b&gt;&amp;nbsp;y solo debe ser conocida por el propietario&lt;/div&gt;&lt;div&gt;&lt;b&gt;- &lt;/b&gt;Los datos cifrados con la llave pública solo pueden ser desifrados con la correspondiente llave privada&lt;/div&gt;" style="text;html=1;align=left;verticalAlign=top;whiteSpace=wrap;rounded=0;labelBorderColor=default;" parent="1" vertex="1">
          <mxGeometry x="300" y="320" width="180" height="180" as="geometry" />
        </mxCell>
        <mxCell id="DVwjYZw-OUDus3rM_8y--9" value="Remitente" style="sketch=0;outlineConnect=0;fontColor=#232F3E;gradientColor=none;fillColor=#232F3D;strokeColor=none;dashed=0;verticalLabelPosition=bottom;verticalAlign=top;align=center;html=1;fontSize=12;fontStyle=0;aspect=fixed;pointerEvents=1;shape=mxgraph.aws4.user;" parent="1" vertex="1">
          <mxGeometry x="70" y="600" width="50" height="50" as="geometry" />
        </mxCell>
        <mxCell id="DVwjYZw-OUDus3rM_8y--10" value="message" style="shape=message;html=1;html=1;outlineConnect=0;labelPosition=center;verticalLabelPosition=bottom;align=center;verticalAlign=top;" parent="1" vertex="1">
          <mxGeometry x="340" y="605" width="60" height="40" as="geometry" />
        </mxCell>
        <mxCell id="DVwjYZw-OUDus3rM_8y--13" style="edgeStyle=orthogonalEdgeStyle;rounded=0;orthogonalLoop=1;jettySize=auto;html=1;" parent="1" source="DVwjYZw-OUDus3rM_8y--11" target="DVwjYZw-OUDus3rM_8y--10" edge="1">
          <mxGeometry relative="1" as="geometry" />
        </mxCell>
        <mxCell id="DVwjYZw-OUDus3rM_8y--14" value="cifrar" style="edgeLabel;html=1;align=center;verticalAlign=middle;resizable=0;points=[];" parent="DVwjYZw-OUDus3rM_8y--13" vertex="1" connectable="0">
          <mxGeometry x="-0.1014" y="-1" relative="1" as="geometry">
            <mxPoint as="offset" />
          </mxGeometry>
        </mxCell>
        <mxCell id="DVwjYZw-OUDus3rM_8y--11" value="" style="points=[[0,0.5,0],[0.24,0,0],[0.5,0.28,0],[0.995,0.475,0],[0.5,0.72,0],[0.24,1,0]];verticalLabelPosition=bottom;sketch=0;html=1;verticalAlign=top;aspect=fixed;align=center;pointerEvents=1;shape=mxgraph.cisco19.key;fillColor=#CC0066;strokeColor=none;" parent="1" vertex="1">
          <mxGeometry x="180" y="620" width="22.22" height="10" as="geometry" />
        </mxCell>
        <mxCell id="DVwjYZw-OUDus3rM_8y--12" value="usa" style="edgeStyle=orthogonalEdgeStyle;rounded=0;orthogonalLoop=1;jettySize=auto;html=1;entryX=0;entryY=0.5;entryDx=0;entryDy=0;entryPerimeter=0;" parent="1" source="DVwjYZw-OUDus3rM_8y--9" target="DVwjYZw-OUDus3rM_8y--11" edge="1">
          <mxGeometry relative="1" as="geometry" />
        </mxCell>
        <mxCell id="DVwjYZw-OUDus3rM_8y--19" style="edgeStyle=orthogonalEdgeStyle;rounded=0;orthogonalLoop=1;jettySize=auto;html=1;entryX=1;entryY=0.5;entryDx=0;entryDy=0;" parent="1" source="DVwjYZw-OUDus3rM_8y--15" target="DVwjYZw-OUDus3rM_8y--10" edge="1">
          <mxGeometry relative="1" as="geometry" />
        </mxCell>
        <mxCell id="DVwjYZw-OUDus3rM_8y--20" value="descrifrar" style="edgeLabel;html=1;align=center;verticalAlign=middle;resizable=0;points=[];" parent="DVwjYZw-OUDus3rM_8y--19" vertex="1" connectable="0">
          <mxGeometry x="-0.3898" y="3" relative="1" as="geometry">
            <mxPoint y="-3" as="offset" />
          </mxGeometry>
        </mxCell>
        <mxCell id="DVwjYZw-OUDus3rM_8y--15" value="Destinatario" style="sketch=0;outlineConnect=0;fontColor=#232F3E;gradientColor=none;fillColor=#232F3D;strokeColor=none;dashed=0;verticalLabelPosition=bottom;verticalAlign=top;align=center;html=1;fontSize=12;fontStyle=0;aspect=fixed;pointerEvents=1;shape=mxgraph.aws4.user;" parent="1" vertex="1">
          <mxGeometry x="640" y="600" width="50" height="50" as="geometry" />
        </mxCell>
        <mxCell id="DVwjYZw-OUDus3rM_8y--16" value="&lt;font style=&quot;font-size: 11px;&quot;&gt;Solo yo!&amp;nbsp; como destinario puedo descifrar el mensaje!&lt;/font&gt;&lt;div style=&quot;font-size: 11px;&quot;&gt;&lt;font style=&quot;font-size: 11px;&quot;&gt;Ya que soy yo quien posee la llave privada&lt;/font&gt;&lt;/div&gt;" style="shape=callout;whiteSpace=wrap;html=1;perimeter=calloutPerimeter;" parent="1" vertex="1">
          <mxGeometry x="600" y="490" width="150" height="100" as="geometry" />
        </mxCell>
        <mxCell id="DVwjYZw-OUDus3rM_8y--17" value="" style="points=[[0,0.5,0],[0.24,0,0],[0.5,0.28,0],[0.995,0.475,0],[0.5,0.72,0],[0.24,1,0]];verticalLabelPosition=bottom;sketch=0;html=1;verticalAlign=top;aspect=fixed;align=center;pointerEvents=1;shape=mxgraph.cisco19.key;fillColor=#007FFF;strokeColor=none;" parent="1" vertex="1">
          <mxGeometry x="630" y="590" width="22.22" height="10" as="geometry" />
        </mxCell>
        <mxCell id="DVwjYZw-OUDus3rM_8y--21" value="El destinario es quien &lt;b&gt;debe crear y compartir &lt;/b&gt;la llave pública con los diferentes remitentes" style="text;html=1;align=center;verticalAlign=middle;whiteSpace=wrap;rounded=0;dashed=1;strokeColor=default;" parent="1" vertex="1">
          <mxGeometry x="600" y="420" width="150" height="60" as="geometry" />
        </mxCell>
        <mxCell id="DVwjYZw-OUDus3rM_8y--22" value="&lt;font style=&quot;font-size: 10px;&quot;&gt;Remitente&lt;/font&gt;" style="sketch=0;outlineConnect=0;fontColor=#232F3E;gradientColor=none;fillColor=#232F3D;strokeColor=none;dashed=0;verticalLabelPosition=bottom;verticalAlign=top;align=center;html=1;fontSize=12;fontStyle=0;aspect=fixed;pointerEvents=1;shape=mxgraph.aws4.user;" parent="1" vertex="1">
          <mxGeometry x="70" y="680" width="20" height="20" as="geometry" />
        </mxCell>
        <mxCell id="DVwjYZw-OUDus3rM_8y--23" value="&lt;font style=&quot;font-size: 10px;&quot;&gt;Remitente&lt;/font&gt;" style="sketch=0;outlineConnect=0;fontColor=#232F3E;gradientColor=none;fillColor=#232F3D;strokeColor=none;dashed=0;verticalLabelPosition=bottom;verticalAlign=top;align=center;html=1;fontSize=12;fontStyle=0;aspect=fixed;pointerEvents=1;shape=mxgraph.aws4.user;" parent="1" vertex="1">
          <mxGeometry x="110" y="704" width="20" height="20" as="geometry" />
        </mxCell>
        <mxCell id="DVwjYZw-OUDus3rM_8y--24" value="" style="points=[[0,0.5,0],[0.24,0,0],[0.5,0.28,0],[0.995,0.475,0],[0.5,0.72,0],[0.24,1,0]];verticalLabelPosition=bottom;sketch=0;html=1;verticalAlign=top;aspect=fixed;align=center;pointerEvents=1;shape=mxgraph.cisco19.key;fillColor=#CC0066;strokeColor=none;" parent="1" vertex="1">
          <mxGeometry x="97.78" y="694" width="22.22" height="10" as="geometry" />
        </mxCell>
        <mxCell id="DVwjYZw-OUDus3rM_8y--25" value="" style="points=[[0,0.5,0],[0.24,0,0],[0.5,0.28,0],[0.995,0.475,0],[0.5,0.72,0],[0.24,1,0]];verticalLabelPosition=bottom;sketch=0;html=1;verticalAlign=top;aspect=fixed;align=center;pointerEvents=1;shape=mxgraph.cisco19.key;fillColor=#CC0066;strokeColor=none;" parent="1" vertex="1">
          <mxGeometry x="47.78" y="680" width="22.22" height="10" as="geometry" />
        </mxCell>
        <mxCell id="DVwjYZw-OUDus3rM_8y--26" value="&lt;font style=&quot;font-size: 10px;&quot;&gt;Llave pública&lt;/font&gt;" style="points=[[0,0.5,0],[0.24,0,0],[0.5,0.28,0],[0.995,0.475,0],[0.5,0.72,0],[0.24,1,0]];verticalLabelPosition=bottom;sketch=0;html=1;verticalAlign=top;aspect=fixed;align=center;pointerEvents=1;shape=mxgraph.cisco19.key;fillColor=#CC0066;strokeColor=none;" parent="1" vertex="1">
          <mxGeometry x="112.78" y="510" width="22.22" height="10" as="geometry" />
        </mxCell>
        <mxCell id="DVwjYZw-OUDus3rM_8y--27" value="&lt;font style=&quot;font-size: 10px;&quot;&gt;Llave privada&lt;/font&gt;" style="points=[[0,0.5,0],[0.24,0,0],[0.5,0.28,0],[0.995,0.475,0],[0.5,0.72,0],[0.24,1,0]];verticalLabelPosition=bottom;sketch=0;html=1;verticalAlign=top;aspect=fixed;align=center;pointerEvents=1;shape=mxgraph.cisco19.key;fillColor=#007FFF;strokeColor=none;" parent="1" vertex="1">
          <mxGeometry x="185" y="510" width="22.22" height="10" as="geometry" />
        </mxCell>
        <mxCell id="DVwjYZw-OUDus3rM_8y--30" style="edgeStyle=orthogonalEdgeStyle;rounded=0;orthogonalLoop=1;jettySize=auto;html=1;entryX=1;entryY=0.5;entryDx=0;entryDy=0;" parent="1" source="DVwjYZw-OUDus3rM_8y--28" target="DVwjYZw-OUDus3rM_8y--29" edge="1">
          <mxGeometry relative="1" as="geometry" />
        </mxCell>
        <mxCell id="DVwjYZw-OUDus3rM_8y--28" value="Pueden ser generadas con nodejs o alguna otra utilidad" style="text;html=1;align=center;verticalAlign=middle;whiteSpace=wrap;rounded=0;" parent="1" vertex="1">
          <mxGeometry x="305" y="505" width="200" height="30" as="geometry" />
        </mxCell>
        <mxCell id="DVwjYZw-OUDus3rM_8y--32" value="El mensaje cifrado se debe enviar al destinario" style="text;html=1;align=center;verticalAlign=middle;whiteSpace=wrap;rounded=0;dashed=1;strokeColor=default;" parent="1" vertex="1">
          <mxGeometry x="295" y="680" width="150" height="60" as="geometry" />
        </mxCell>
        <mxCell id="-JPf5Cy3aizb1hx4Y7u9-1" value="El uso de keypairs se le conoce como &lt;b&gt;cifrado asimetrico &lt;/b&gt;debido que se usa una llave diferente tanto para cifrar como para descrifrar&lt;div&gt;El cifrado&amp;nbsp;&lt;/div&gt;" style="text;html=1;align=center;verticalAlign=middle;whiteSpace=wrap;rounded=0;dashed=1;strokeColor=default;" vertex="1" parent="1">
          <mxGeometry x="190" y="780" width="430" height="50" as="geometry" />
        </mxCell>
        <mxCell id="-JPf5Cy3aizb1hx4Y7u9-2" value="&lt;b&gt;cifrado asimetrico&amp;nbsp;&lt;/b&gt;" style="rounded=1;whiteSpace=wrap;html=1;" vertex="1" parent="1">
          <mxGeometry x="50" y="780" width="120" height="50" as="geometry" />
        </mxCell>
        <mxCell id="-JPf5Cy3aizb1hx4Y7u9-3" value="&lt;b&gt;cifrado simetrico&amp;nbsp;&lt;/b&gt;" style="rounded=1;whiteSpace=wrap;html=1;" vertex="1" parent="1">
          <mxGeometry x="50" y="860" width="120" height="60" as="geometry" />
        </mxCell>
        <mxCell id="-JPf5Cy3aizb1hx4Y7u9-4" value="Cuando se utiliza una misma clave secreta para cifrar como para descifrar" style="text;html=1;align=center;verticalAlign=middle;whiteSpace=wrap;rounded=0;dashed=1;strokeColor=default;" vertex="1" parent="1">
          <mxGeometry x="190" y="860" width="430" height="60" as="geometry" />
        </mxCell>
        <mxCell id="-JPf5Cy3aizb1hx4Y7u9-6" value="&lt;h1 style=&quot;margin-top: 0px;&quot;&gt;Cifrado con llave pública y privada&lt;/h1&gt;&lt;p&gt;Cifrado &lt;b&gt;asimetrico&lt;/b&gt;&lt;/p&gt;" style="text;html=1;whiteSpace=wrap;overflow=hidden;rounded=0;" vertex="1" parent="1">
          <mxGeometry x="65" y="110" width="415" height="70" as="geometry" />
        </mxCell>
        <mxCell id="-JPf5Cy3aizb1hx4Y7u9-7" value="&lt;h1 style=&quot;margin-top: 0px;&quot;&gt;&lt;span style=&quot;background-color: initial;&quot;&gt;Generación de hash&lt;/span&gt;&lt;/h1&gt;&lt;h1 style=&quot;margin-top: 0px;&quot;&gt;&lt;span style=&quot;font-size: 12px; font-weight: 400;&quot;&gt;Util para comprobar la veracidad de la información y si esta no fue alterada o modificada&lt;/span&gt;&lt;/h1&gt;" style="text;html=1;whiteSpace=wrap;overflow=hidden;rounded=0;" vertex="1" parent="1">
          <mxGeometry x="70" y="990" width="500" height="80" as="geometry" />
        </mxCell>
        <mxCell id="-JPf5Cy3aizb1hx4Y7u9-8" value="message" style="shape=message;html=1;html=1;outlineConnect=0;labelPosition=center;verticalLabelPosition=bottom;align=center;verticalAlign=top;" vertex="1" parent="1">
          <mxGeometry x="375" y="1120" width="60" height="40" as="geometry" />
        </mxCell>
        <mxCell id="-JPf5Cy3aizb1hx4Y7u9-10" style="edgeStyle=orthogonalEdgeStyle;rounded=0;orthogonalLoop=1;jettySize=auto;html=1;" edge="1" parent="1" source="-JPf5Cy3aizb1hx4Y7u9-9">
          <mxGeometry relative="1" as="geometry">
            <mxPoint x="370" y="1140" as="targetPoint" />
          </mxGeometry>
        </mxCell>
        <mxCell id="-JPf5Cy3aizb1hx4Y7u9-11" value="Generar hash" style="edgeLabel;html=1;align=center;verticalAlign=middle;resizable=0;points=[];" vertex="1" connectable="0" parent="-JPf5Cy3aizb1hx4Y7u9-10">
          <mxGeometry x="0.0622" y="-3" relative="1" as="geometry">
            <mxPoint as="offset" />
          </mxGeometry>
        </mxCell>
        <mxCell id="-JPf5Cy3aizb1hx4Y7u9-9" value="Origen" style="sketch=0;outlineConnect=0;fontColor=#232F3E;gradientColor=none;fillColor=#232F3D;strokeColor=none;dashed=0;verticalLabelPosition=bottom;verticalAlign=top;align=center;html=1;fontSize=12;fontStyle=0;aspect=fixed;pointerEvents=1;shape=mxgraph.aws4.user;" vertex="1" parent="1">
          <mxGeometry x="30" y="1115.5" width="49" height="49" as="geometry" />
        </mxCell>
        <mxCell id="-JPf5Cy3aizb1hx4Y7u9-12" value="El hash generado a partir de un mensaje &lt;b&gt;no se puede revertir &lt;/b&gt;a su contenido original" style="text;html=1;align=left;verticalAlign=top;whiteSpace=wrap;rounded=0;strokeColor=default;dashed=1;" vertex="1" parent="1">
          <mxGeometry x="334" y="1200" width="146" height="70" as="geometry" />
        </mxCell>
        <mxCell id="-JPf5Cy3aizb1hx4Y7u9-15" value="" style="verticalLabelPosition=bottom;sketch=0;aspect=fixed;html=1;verticalAlign=top;strokeColor=none;align=center;outlineConnect=0;shape=mxgraph.citrix.laptop_2;" vertex="1" parent="1">
          <mxGeometry x="65" y="1164.5" width="53.64" height="40" as="geometry" />
        </mxCell>
        <mxCell id="-JPf5Cy3aizb1hx4Y7u9-22" style="edgeStyle=orthogonalEdgeStyle;rounded=0;orthogonalLoop=1;jettySize=auto;html=1;entryX=1;entryY=0.5;entryDx=0;entryDy=0;" edge="1" parent="1" source="-JPf5Cy3aizb1hx4Y7u9-16" target="-JPf5Cy3aizb1hx4Y7u9-8">
          <mxGeometry relative="1" as="geometry" />
        </mxCell>
        <mxCell id="-JPf5Cy3aizb1hx4Y7u9-23" value="Comprobar hash" style="edgeLabel;html=1;align=center;verticalAlign=middle;resizable=0;points=[];" vertex="1" connectable="0" parent="-JPf5Cy3aizb1hx4Y7u9-22">
          <mxGeometry x="0.1982" relative="1" as="geometry">
            <mxPoint as="offset" />
          </mxGeometry>
        </mxCell>
        <mxCell id="-JPf5Cy3aizb1hx4Y7u9-16" value="Destino" style="sketch=0;outlineConnect=0;fontColor=#232F3E;gradientColor=none;fillColor=#232F3D;strokeColor=none;dashed=0;verticalLabelPosition=bottom;verticalAlign=top;align=center;html=1;fontSize=12;fontStyle=0;aspect=fixed;pointerEvents=1;shape=mxgraph.aws4.user;" vertex="1" parent="1">
          <mxGeometry x="730" y="1120" width="40" height="40" as="geometry" />
        </mxCell>
        <mxCell id="-JPf5Cy3aizb1hx4Y7u9-17" value="&lt;font style=&quot;font-size: 11px;&quot; face=&quot;Lucida Console&quot;&gt;{&lt;/font&gt;&lt;div style=&quot;font-size: 11px;&quot;&gt;&lt;font style=&quot;font-size: 11px;&quot; face=&quot;UTUuLkoizxd8dpGmHJsX&quot;&gt;&amp;nbsp; &quot;user&quot;: &quot;jjoselon&quot;,&lt;/font&gt;&lt;/div&gt;&lt;div style=&quot;font-size: 11px;&quot;&gt;&lt;font style=&quot;font-size: 11px;&quot; face=&quot;UTUuLkoizxd8dpGmHJsX&quot;&gt;&amp;nbsp; &quot;email&quot;: &quot;jjoselon804@gmail.com&quot;&lt;/font&gt;&lt;/div&gt;&lt;div style=&quot;font-size: 11px;&quot;&gt;&lt;font style=&quot;font-size: 11px;&quot; face=&quot;UTUuLkoizxd8dpGmHJsX&quot;&gt;}&lt;/font&gt;&lt;/div&gt;" style="text;html=1;align=left;verticalAlign=top;whiteSpace=wrap;rounded=0;strokeColor=default;dashed=1;" vertex="1" parent="1">
          <mxGeometry x="30" y="1210" width="180" height="70" as="geometry" />
        </mxCell>
        <mxCell id="-JPf5Cy3aizb1hx4Y7u9-18" value="" style="verticalLabelPosition=bottom;html=1;verticalAlign=top;align=center;strokeColor=none;fillColor=#00BEF2;shape=mxgraph.azure.cloud_services_configuration_file;pointerEvents=1;" vertex="1" parent="1">
          <mxGeometry x="172.36" y="1260" width="47.5" height="50" as="geometry" />
        </mxCell>
        <mxCell id="-JPf5Cy3aizb1hx4Y7u9-19" value="" style="verticalLabelPosition=bottom;sketch=0;aspect=fixed;html=1;verticalAlign=top;strokeColor=none;align=center;outlineConnect=0;shape=mxgraph.citrix.laptop_2;" vertex="1" parent="1">
          <mxGeometry x="676.36" y="1164.5" width="53.64" height="40" as="geometry" />
        </mxCell>
        <mxCell id="-JPf5Cy3aizb1hx4Y7u9-20" value="&lt;font style=&quot;font-size: 10px;&quot;&gt;Comprobaré si el hash generado coincide con mi mensaje original y asi verificar si este no fue modificado en el camino por algun hombre malo&lt;/font&gt;" style="shape=callout;whiteSpace=wrap;html=1;perimeter=calloutPerimeter;" vertex="1" parent="1">
          <mxGeometry x="679.5" y="1010" width="150" height="100" as="geometry" />
        </mxCell>
        <mxCell id="-JPf5Cy3aizb1hx4Y7u9-21" value="&lt;font face=&quot;Lucida Console&quot;&gt;&lt;span style=&quot;font-size: 11px;&quot;&gt;passwords&lt;/span&gt;&lt;/font&gt;" style="text;html=1;align=left;verticalAlign=top;whiteSpace=wrap;rounded=0;strokeColor=default;dashed=1;" vertex="1" parent="1">
          <mxGeometry x="30" y="1310" width="130" height="30" as="geometry" />
        </mxCell>
        <mxCell id="-JPf5Cy3aizb1hx4Y7u9-24" value="&lt;font style=&quot;font-size: 11px;&quot; face=&quot;Lucida Console&quot;&gt;{&lt;/font&gt;&lt;div style=&quot;font-size: 11px;&quot;&gt;&lt;font style=&quot;font-size: 11px;&quot; face=&quot;UTUuLkoizxd8dpGmHJsX&quot;&gt;&amp;nbsp; &quot;user&quot;: &quot;jjoselon&quot;,&lt;/font&gt;&lt;/div&gt;&lt;div style=&quot;font-size: 11px;&quot;&gt;&lt;font style=&quot;font-size: 11px;&quot; face=&quot;UTUuLkoizxd8dpGmHJsX&quot;&gt;&amp;nbsp; &quot;email&quot;: &quot;jjoselon804@gmail.com&quot;&lt;/font&gt;&lt;/div&gt;&lt;div style=&quot;font-size: 11px;&quot;&gt;&lt;font style=&quot;font-size: 11px;&quot; face=&quot;UTUuLkoizxd8dpGmHJsX&quot;&gt;}&lt;/font&gt;&lt;/div&gt;" style="text;html=1;align=left;verticalAlign=top;whiteSpace=wrap;rounded=0;strokeColor=default;dashed=1;" vertex="1" parent="1">
          <mxGeometry x="679.5" y="1220" width="180" height="70" as="geometry" />
        </mxCell>
        <mxCell id="-JPf5Cy3aizb1hx4Y7u9-25" value="" style="verticalLabelPosition=bottom;html=1;verticalAlign=top;align=center;strokeColor=none;fillColor=#00BEF2;shape=mxgraph.azure.cloud_services_configuration_file;pointerEvents=1;" vertex="1" parent="1">
          <mxGeometry x="821.86" y="1270" width="47.5" height="50" as="geometry" />
        </mxCell>
        <mxCell id="-JPf5Cy3aizb1hx4Y7u9-26" value="&lt;font face=&quot;Lucida Console&quot;&gt;&lt;span style=&quot;font-size: 11px;&quot;&gt;passwords&lt;/span&gt;&lt;/font&gt;" style="text;html=1;align=left;verticalAlign=top;whiteSpace=wrap;rounded=0;strokeColor=default;dashed=1;" vertex="1" parent="1">
          <mxGeometry x="679.5" y="1320" width="130" height="30" as="geometry" />
        </mxCell>
      </root>
    </mxGraphModel>
  </diagram>
</mxfile>
